<?xml version="1.0" standalone="no"?>
<!DOCTYPE svg PUBLIC "-//W3C//DTD SVG 20010904//EN"
 "http://www.w3.org/TR/2001/REC-SVG-20010904/DTD/svg10.dtd">
<svg version="1.0" xmlns="http://www.w3.org/2000/svg"
 width="700.000000pt" height="700.000000pt" viewBox="0 0 700.000000 700.000000"
 preserveAspectRatio="xMidYMid meet">
<metadata>
Created by potrace 1.14, written by Peter Selinger 2001-2017
</metadata>
<g transform="translate(0.000000,700.000000) scale(0.100000,-0.100000)"
fill="#000000" stroke="none">
<path d="M3708 6953 c-17 -20 -17 -31 8 -218 20 -146 27 -596 12 -740 -14
-135 -42 -301 -67 -395 -45 -169 -90 -296 -155 -430 -57 -117 -105 -195 -189
-310 -71 -96 -249 -282 -322 -335 -22 -17 -42 -33 -45 -36 -16 -20 -205 -138
-302 -188 -118 -62 -328 -151 -357 -151 -31 0 -130 184 -183 340 -44 131 -93
334 -103 430 -2 23 -6 44 -9 48 -2 4 -7 44 -11 90 -4 46 -8 91 -10 100 -2 9
-4 29 -4 44 -1 18 -10 33 -26 44 -23 15 -27 15 -72 -11 -50 -29 -204 -134
-213 -145 -3 -3 -21 -17 -40 -30 -19 -14 -42 -32 -51 -40 -8 -8 -40 -35 -69
-60 -309 -258 -598 -660 -763 -1061 -52 -125 -116 -321 -133 -409 -3 -14 -11
-50 -19 -80 -22 -89 -38 -202 -54 -360 -8 -86 -6 -467 2 -506 3 -11 8 -45 11
-75 44 -415 218 -877 467 -1244 356 -525 866 -911 1461 -1106 114 -38 307 -89
334 -89 8 0 20 13 29 30 12 24 15 73 15 265 l0 236 -32 -6 c-227 -39 -437 -20
-570 52 -26 14 -69 47 -95 73 -46 46 -59 67 -117 191 -31 66 -94 166 -145 228
-31 39 -113 101 -131 101 -4 0 -6 -18 -5 -40 1 -21 -1 -38 -4 -36 -3 2 -49 24
-101 48 -52 25 -121 58 -153 73 l-58 28 103 48 c57 26 126 59 153 72 28 14 53
23 56 21 3 -2 5 -21 4 -44 l-2 -40 50 0 c129 0 262 -86 359 -231 60 -90 101
-137 156 -178 131 -99 309 -117 489 -49 42 15 54 25 58 46 23 112 63 201 117
258 l29 31 -83 13 c-453 65 -739 248 -883 564 -31 68 -71 195 -81 255 -2 14
-7 37 -9 51 -25 130 -26 361 -3 480 30 148 112 321 196 412 l25 28 -21 87
c-23 95 -27 247 -11 343 17 98 69 239 69 189 0 -32 98 -155 151 -192 75 -51
130 -68 228 -71 92 -3 111 0 316 49 243 58 468 77 712 60 125 -8 267 -33 433
-75 272 -69 359 -60 465 48 25 25 67 81 92 125 l46 78 27 -43 c54 -90 74 -172
75 -303 0 -129 -6 -177 -28 -243 -14 -40 -13 -44 6 -70 12 -15 24 -29 27 -32
15 -12 70 -100 98 -155 67 -134 99 -288 96 -460 -11 -574 -242 -919 -714
-1063 -87 -27 -288 -68 -348 -71 -8 -1 0 -18 20 -43 60 -77 98 -168 114 -274
4 -21 6 -209 6 -418 -1 -432 1 -452 60 -442 128 20 338 79 503 141 104 39 339
150 435 206 57 34 238 154 279 186 412 321 700 684 905 1138 44 98 111 272
132 345 23 79 67 256 75 300 46 256 54 351 53 620 0 237 -10 375 -39 565 -3
17 -7 46 -10 65 -7 53 -14 86 -36 190 -11 52 -22 102 -24 110 -78 362 -292
871 -507 1208 -10 15 -24 40 -33 55 -9 15 -56 85 -105 155 -418 595 -990 1109
-1665 1494 -186 106 -289 158 -313 158 -10 0 -26 -8 -34 -17z"/>
</g>
</svg>
